<svg width="31" height="26" viewBox="0 0 31 26" fill="none" xmlns="http://www.w3.org/2000/svg">
<path fill-rule="evenodd" clip-rule="evenodd" d="M7.13874 8.83851C5.08891 9.98726 4.38659 12.5315 5.57006 14.5212C6.23184 15.6338 7.25877 16.3847 8.36003 16.6487C6.84281 17.9289 6.42147 20.1127 7.46427 21.8659C8.64774 23.8556 11.2688 24.5373 13.3187 23.3885L23.5228 17.67C25.5726 16.5212 26.2749 13.977 25.0914 11.9873C24.4385 10.8896 23.348 10.19 22.1572 9.97625C23.7911 8.7154 24.2723 6.45021 23.1972 4.64266C22.0138 2.65296 19.3926 1.97124 17.3428 3.11999L7.13874 8.83851ZM19.2397 10.4632L21.0928 9.42466C22.6302 8.56309 23.1569 6.65493 22.2693 5.16266C21.3817 3.67039 19.4159 3.1591 17.8785 4.02066L7.67445 9.73918C6.13708 10.6007 5.61034 12.5089 6.49794 14.0012C7.38554 15.4935 9.03297 16.1832 10.4248 15.4032L10.9605 16.3038L9.56866 17.0839C8.03129 17.9454 7.50455 19.8536 8.39215 21.3459C9.27975 22.8381 11.2456 23.3494 12.783 22.4879L22.987 16.7693C24.5244 15.9078 25.0511 13.9996 24.1635 12.5073C23.2759 11.0151 21.3101 10.5038 19.7728 11.3653L19.237 10.4647C19.2379 10.4642 19.2388 10.4637 19.2397 10.4632Z" fill="black"/>
<path d="M13.2781 11.635C13.2781 11.2573 13.6937 11.0243 14.0307 11.2132L18.3163 13.6149C18.6571 13.8059 18.6619 14.2839 18.3249 14.4728L14.0392 16.8746C13.7022 17.0634 13.2781 16.8204 13.2781 16.4385L13.2781 11.635Z" fill="black"/>
</svg>
