<svg width="30" height="30" viewBox="0 0 30 30" fill="none" xmlns="http://www.w3.org/2000/svg">
<path d="M14.1293 14.2548L19.0989 9.27097C18.2456 8.60541 17.2674 8.33081 16.2673 8.33081C14.4268 8.33081 12.5117 9.26033 11.1535 10.3923C11.1189 10.4214 11.0848 10.4506 11.0506 10.4802C10.9889 10.5331 10.9275 10.5866 10.8682 10.6403C10.7676 10.7323 10.6684 10.8252 10.5733 10.9205C10.4098 11.0848 10.252 11.259 10.0996 11.4402C10.071 11.4738 10.0452 11.5094 10.0171 11.5435C9.89322 11.6954 9.7725 11.8512 9.65758 12.0131C8.95814 12.9958 8.4704 14.1048 8.28096 15.1967C8.0925 16.2837 8.12298 17.8137 9.22403 19.1744L14.1293 14.2548Z" fill="#FFB19D"/>
<path d="M9.50492 10.5148C9.61016 10.3984 9.7171 10.2835 9.82766 10.1724C10.1753 9.82379 10.551 9.49645 10.9483 9.19621L1.77847 0L0 1.78331L9.13669 10.9464C9.23516 10.8235 9.3375 10.7037 9.44202 10.5856C9.46282 10.5617 9.48387 10.5382 9.50492 10.5148Z" fill="#FFB19D"/>
<path d="M9.94717 19.9452C13.6645 23.835 15.4294 28.1889 16.0483 30L21.4681 24.5642L19.7712 20.5212C19.688 20.3228 19.7327 20.0939 19.8844 19.9418C20.0364 19.7896 20.2645 19.7448 20.4622 19.8281L24.4935 21.5301L27.0719 18.9443L26.4327 16.8798C26.3782 16.7047 26.4184 16.5138 26.5389 16.3754C26.6591 16.2373 26.8415 16.1702 27.0227 16.2012L29.4116 16.598L30 16.0081C28.0021 15.0462 22.2164 12.1674 19.8699 9.99387L9.94717 19.9452Z" fill="#FFB19D"/>
</svg>
