<svg width="30" height="19" viewBox="0 0 30 19" fill="none" xmlns="http://www.w3.org/2000/svg">
<path fill-rule="evenodd" clip-rule="evenodd" d="M18.2809 4.54688L19.8371 7.65938C20.0762 8.14221 20.559 8.43752 21.0934 8.43752H26.7184V18.2813C26.7184 18.5438 26.5074 18.75 26.2496 18.75H18.2809V4.54688ZM22.9684 16.4063V13.5938C22.9684 13.3359 22.7574 13.125 22.4996 13.125H19.6871C19.4293 13.125 19.2184 13.3359 19.2184 13.5938V16.4063C19.2184 16.6641 19.4293 16.875 19.6871 16.875H22.4996C22.7574 16.875 22.9684 16.6641 22.9684 16.4063Z" fill="#FFB19D"/>
<path d="M29.9527 6.825L26.6715 0.262499C26.5918 0.103111 26.4277 0 26.2496 0H18.2809V2.45155L20.6762 7.24216C20.7559 7.40155 20.9152 7.5 21.0934 7.5H29.5309C29.6949 7.5 29.8449 7.4156 29.9293 7.27967C30.0137 7.13905 30.023 6.97031 29.9527 6.825Z" fill="#FFB19D"/>
<path fill-rule="evenodd" clip-rule="evenodd" d="M3.74962 0C3.73055 0 3.71466 0.00474026 3.69825 0.0096333C3.68641 0.0131635 3.67431 0.0167732 3.66055 0.0187397C3.65273 0.0203069 3.6449 0.0213507 3.63707 0.0223944C3.62147 0.0244755 3.60586 0.0265567 3.59026 0.0327873C3.55744 0.0468636 3.52463 0.0656033 3.4965 0.0843716L3.48487 0.0912397C3.46665 0.101903 3.4511 0.111008 3.43556 0.126543C3.41391 0.14458 3.39783 0.168177 3.38086 0.193054C3.37579 0.200495 3.37064 0.208051 3.36524 0.215607C3.36187 0.220674 3.35789 0.225737 3.35374 0.231019L3.35374 0.231021C3.34636 0.24041 3.33844 0.250488 3.33245 0.262499L0.0512005 6.825C-0.0238153 6.97031 -0.0144312 7.13905 0.0699401 7.27967C0.154312 7.4156 0.304315 7.5 0.468366 7.5H3.28087V18.2812C3.28087 18.5391 3.49181 18.75 3.74962 18.75H17.3434V0H3.74962ZM10.2887 12.0515C10.1059 12.2344 9.81055 12.2344 9.62776 12.0515L8.43712 10.8609V15.9375C8.43712 16.1953 8.22617 16.4062 7.96837 16.4062C7.71056 16.4062 7.49962 16.1953 7.49962 15.9375V10.8609L6.309 12.0515C6.21994 12.1406 6.09806 12.1875 5.98087 12.1875C5.85899 12.1875 5.7418 12.1406 5.64805 12.0515C5.46526 11.8687 5.46526 11.5734 5.64805 11.3906L7.63557 9.39843C7.68244 9.35623 7.73399 9.32342 7.79024 9.29998C7.90276 9.25312 8.034 9.25312 8.14649 9.29998C8.20743 9.32342 8.25899 9.35623 8.30119 9.39843L10.2887 11.3906C10.4715 11.5734 10.4715 11.8687 10.2887 12.0515ZM7.96837 7.03125H13.5934C14.6293 7.03125 15.4684 6.19217 15.4684 5.15625C15.4684 4.12499 14.6293 3.28125 13.5934 3.28125H7.96837C6.93245 3.28125 6.09337 4.12499 6.09337 5.15625C6.09337 6.19217 6.93245 7.03125 7.96837 7.03125Z" fill="#FFB19D"/>
</svg>
