<svg width="24" height="25" viewBox="0 0 24 25" fill="none" xmlns="http://www.w3.org/2000/svg">
<path fill-rule="evenodd" clip-rule="evenodd" d="M14.0833 1C15.3333 -0.25 17.3333 -0.25 18.5833 1L15 4.5C14.3333 5.16667 14.3333 6.25 15 6.91667L17 9C17.6667 9.66667 18.75 9.66667 19.4167 9L23 5.41667C24.25 6.66667 24.25 8.66667 23 9.91667L19.3333 13.5833C18.0833 14.8333 16.1667 14.8333 14.9167 13.75L5.50001 23.1667C4.41668 24.25 2.66668 24.25 1.58334 23.1667L0.833344 22.3333C-0.24999 21.3333 -0.24999 19.5 0.833344 18.5L10.25 9.08333C9.08334 7.83333 9.16668 5.91667 10.3333 4.66667L14.0833 1ZM2.25001 18.8333C3.08334 18 4.33334 18 5.16668 18.8333C6.00001 19.5833 6.00001 20.9167 5.16668 21.6667C4.33334 22.5 3.08334 22.5 2.25001 21.6667C1.50001 20.9167 1.50001 19.5833 2.25001 18.8333Z" fill="#FFB19D"/>
<path d="M17.6667 15.1667L21.5 19C21.6667 19.1667 21.9167 19.1667 22 19L22.4167 18.6667C22.5833 18.5 22.5833 18.25 22.4167 18.1667L19 14.75C19.3333 14.5 19.5833 14.3333 19.8333 14L23.25 17.4167C24.1667 18.3333 24.1667 19.9167 23.25 20.8333L20.5833 23.5C19.5833 24.4167 18.0833 24.4167 17.1667 23.5L11.6667 18L15 14.6667C15.8333 15.1667 16.75 15.3333 17.6667 15.1667Z" fill="#FFB19D"/>
<path d="M8.25 10L4.58333 6.33335C4.16667 6.66669 3.5 6.66669 3.25 6.25002L0 1.41669L1.25 0.166687L6.08333 3.41669C6.5 3.66669 6.5 4.33335 6.16667 4.75002L8.75 7.33335C8.83333 7.91669 9 8.50002 9.33333 9.00002L8.25 10Z" fill="#FFB19D"/>
</svg>
