<svg width="18" height="18" viewBox="0 0 18 18" fill="none" xmlns="http://www.w3.org/2000/svg">
<path fill-rule="evenodd" clip-rule="evenodd" d="M17.8993 13.4281V16.1281C17.9014 16.6349 17.6897 17.1191 17.3162 17.4618C16.9427 17.8044 16.4421 17.9737 15.9373 17.9281C13.1679 17.6272 10.5076 16.6808 8.17031 15.1651C5.99576 13.7833 4.15211 11.9396 2.77031 9.76509C1.24929 7.41717 0.30273 4.74398 0.00731142 1.96209C-0.0381627 1.45887 0.129956 0.959716 0.470601 0.586547C0.811245 0.213379 1.29305 0.000564308 1.79831 8.8487e-05H4.49831C5.40179 -0.00880365 6.17186 0.653459 6.29831 1.54809C6.41227 2.41215 6.62362 3.26054 6.92831 4.07709C7.17557 4.73488 7.01743 5.47641 6.52331 5.97609L5.38031 7.11909C6.66151 9.37228 8.52712 11.2379 10.7803 12.5191L11.9233 11.3761C12.423 10.882 13.1645 10.7238 13.8223 10.9711C14.6389 11.2758 15.4873 11.4871 16.3513 11.6011C17.2563 11.7288 17.922 12.5144 17.8993 13.4281Z" fill="#FFB19D"/>
</svg>
