<svg width="26" height="30" viewBox="0 0 26 30" fill="none" xmlns="http://www.w3.org/2000/svg">
<path fill-rule="evenodd" clip-rule="evenodd" d="M25.6664 29.7143H0.33316V20.5738H25.6664V29.7143ZM14.4824 25.1438C14.4824 24.3263 13.8171 23.6615 12.9996 23.6615C12.1821 23.6615 11.5169 24.3263 11.5169 25.1438C11.5169 25.9614 12.1821 26.6266 12.9996 26.6266C13.8171 26.6266 14.4824 25.9614 14.4824 25.1438Z" fill="#FFB19D"/>
<circle cx="12.9996" cy="25.1438" r="0.337629" fill="white"/>
<path fill-rule="evenodd" clip-rule="evenodd" d="M14.014 25.1442C14.014 25.7036 13.5594 26.159 12.9996 26.159C12.4403 26.159 11.9849 25.7036 11.9849 25.1442C11.9849 24.5852 12.4403 24.1302 12.9996 24.1302C13.559 24.1302 14.014 24.5848 14.014 25.1442ZM13.8053 25.1438C13.8053 24.6992 13.4439 24.3382 12.9996 24.3382C12.555 24.3382 12.1936 24.6992 12.1936 25.1438C12.1936 25.5881 12.555 25.9491 12.9996 25.9491C13.4439 25.9491 13.8053 25.5881 13.8053 25.1438Z" fill="white"/>
<path fill-rule="evenodd" clip-rule="evenodd" d="M0.33316 9.14123V0H25.6664V9.14123H0.33316ZM11.5169 4.57043C11.5169 5.38794 12.1821 6.05317 12.9996 6.05317C13.8171 6.05317 14.4824 5.38794 14.4824 4.57043C14.4824 3.75291 13.8171 3.08769 12.9996 3.08769C12.1821 3.08769 11.5169 3.75291 11.5169 4.57043Z" fill="#FFB19D"/>
<path fill-rule="evenodd" clip-rule="evenodd" d="M11.9849 4.57007C11.9849 4.01107 12.4403 3.55569 12.9996 3.55569C13.5594 3.55569 14.014 4.01107 14.014 4.57007C14.014 5.12907 13.5594 5.58444 12.9996 5.58444C12.4403 5.58444 11.9849 5.12907 11.9849 4.57007ZM12.1936 4.57044C12.1936 5.01467 12.555 5.37644 12.9996 5.37644C13.4439 5.37644 13.8053 5.01504 13.8053 4.57081C13.8053 4.12695 13.4439 3.76518 12.9996 3.76518C12.555 3.76518 12.1936 4.12658 12.1936 4.57044Z" fill="white"/>
<circle cx="12.9996" cy="4.57081" r="0.337257" fill="white"/>
<circle cx="12.9996" cy="14.8571" r="0.337629" fill="white"/>
<path fill-rule="evenodd" clip-rule="evenodd" d="M14.014 14.8571C14.014 15.4165 13.5594 15.8715 12.9996 15.8715C12.4403 15.8715 11.9849 15.4169 11.9849 14.8571C11.9849 14.2981 12.4403 13.8428 12.9996 13.8428C13.559 13.8428 14.014 14.2978 14.014 14.8571ZM13.8053 14.8571C13.8053 14.4129 13.4439 14.0511 12.9996 14.0511C12.555 14.0511 12.1936 14.4129 12.1936 14.8571C12.1936 15.3014 12.555 15.6628 12.9996 15.6628C13.4439 15.6628 13.8053 15.3014 13.8053 14.8571Z" fill="white"/>
<path fill-rule="evenodd" clip-rule="evenodd" d="M25.6664 19.4276H0.33316V10.2867H25.6664V19.4276ZM14.4824 14.8571C14.4824 14.0396 13.8171 13.3744 12.9996 13.3744C12.1821 13.3744 11.5169 14.0396 11.5169 14.8571C11.5169 15.6747 12.1821 16.3399 12.9996 16.3399C13.8171 16.3399 14.4824 15.6747 14.4824 14.8571Z" fill="#FFB19D"/>
</svg>
