<svg width="16" height="16" viewBox="0 0 16 16" fill="none" xmlns="http://www.w3.org/2000/svg">
<path fill-rule="evenodd" clip-rule="evenodd" d="M3.36181 1.7361C3.34256 0.800356 2.71892 0.0878906 1.7058 0.0878906C0.692415 0.0878906 0.0302734 0.800356 0.0302734 1.7361C0.0302734 2.65152 0.673165 3.38459 1.66704 3.38459H1.68629C2.71892 3.38459 3.36181 2.65152 3.36181 1.7361ZM3.36181 15.8989V5.44246H0.129979V15.8989H3.36181ZM8.63436 9.94133V15.8989H5.38603C5.38603 15.8989 5.43275 6.38039 5.38603 5.37936H8.63405L8.61069 6.77787C9.07695 6.0499 9.91667 4.98036 11.8297 4.98036C14.1629 4.98036 15.9121 6.50511 15.9121 9.78191V15.8989H12.6585V9.94133C12.6585 8.5075 11.8537 7.77921 10.5705 7.77921C9.59089 7.77921 9.0075 8.43899 8.75117 9.07636C8.65741 9.30365 8.63436 9.62249 8.63436 9.94133Z" fill="#0078B5"/>
</svg>
