<svg width="22" height="17" viewBox="0 0 22 17" fill="none" xmlns="http://www.w3.org/2000/svg">
<path d="M10.7317 9.84634C11.1073 9.84634 11.4561 9.71219 11.7244 9.4439L21.061 0.107317C20.9 0.0536585 20.7122 0 20.5244 0H1.47561C1.20732 0 0.965855 0.0804878 0.751221 0.187805L9.73903 9.41707C10.0073 9.68537 10.3561 9.84634 10.7317 9.84634Z" fill="#FFB19D"/>
<path fill-rule="evenodd" clip-rule="evenodd" d="M1.47561 16.0976H20.5244C21.3293 16.0976 22 15.4268 22 14.6219V1.4756C22 1.23414 21.9463 1.0195 21.839 0.804871L12.4756 10.1951C12.0195 10.6512 11.3756 10.9195 10.7317 10.9195C10.0878 10.9195 9.4439 10.6512 8.9878 10.1951L0.0804878 1.0195C0.0268293 1.18048 0 1.31463 0 1.4756V14.6219C0 15.4268 0.670732 16.0976 1.47561 16.0976ZM14.5683 9.6317C14.7561 9.41707 15.1049 9.39024 15.3195 9.57804L19.8537 13.5488C20.0683 13.7366 20.0951 14.0854 19.9073 14.3C19.8 14.4073 19.6659 14.4878 19.5049 14.4878C19.3707 14.4878 19.2634 14.4341 19.1561 14.3537L14.622 10.3829C14.4073 10.1951 14.3805 9.84633 14.5683 9.6317ZM6.06341 9.6317L1.60976 13.5488C1.39512 13.7366 1.36829 14.0854 1.58293 14.3C1.69024 14.4341 1.82439 14.4878 1.98537 14.4878C2.09268 14.4878 2.22683 14.4341 2.33415 14.3537L6.76098 10.4366C6.97561 10.2488 7.00244 9.89999 6.81463 9.68536C6.62683 9.47072 6.27805 9.44389 6.06341 9.6317Z" fill="#FFB19D"/>
</svg>
