<svg width="19" height="16" viewBox="0 0 19 16" fill="none" xmlns="http://www.w3.org/2000/svg">
<path d="M5.84035 15.7143C12.8485 15.7143 16.6816 9.66803 16.6816 4.42469C16.6816 4.25298 16.6816 4.08202 16.6705 3.91182C17.4162 3.35011 18.0599 2.65468 18.5714 1.85798C17.8761 2.17886 17.1383 2.38925 16.383 2.48225C17.1782 1.98652 17.7738 1.20622 18.0581 0.287599C17.3102 0.749744 16.4919 1.07549 15.6386 1.25072C14.9182 0.452928 13.912 0 12.8604 0C10.7682 0 9.04657 1.79283 9.04657 3.97154C9.04657 4.27379 9.07972 4.5751 9.1453 4.8695C6.08327 4.70968 3.22639 3.20143 1.29256 0.723907C0.28695 2.52663 0.807277 4.86285 2.47221 6.02058C1.86592 6.00188 1.27265 5.83152 0.742857 5.52394V5.57422C0.743365 7.45581 2.0286 9.09124 3.79971 9.46379C3.23879 9.62308 2.65013 9.64634 2.07927 9.53186C2.57718 11.1442 4.01299 12.2555 5.63904 12.2873C4.29007 13.3913 2.62274 13.991 0.907026 13.9892C0.603862 13.9886 0.300988 13.9695 0 13.932C1.7423 15.0963 3.77015 15.7141 5.84035 15.7112" fill="#1DA1F2"/>
</svg>
